<svg xmlns="http://www.w3.org/2000/svg" version="1.1" xmlns:xlink="http://www.w3.org/1999/xlink" xmlns:svgjs="http://svgjs.com/svgjs" width="1000" height="1000"><rect width="1000" height="1000" rx="300" ry="300" fill="#bfbfbf"></rect><g transform="matrix(50,0,0,50,91.44034147262573,100.34330224990845)"><svg xmlns="http://www.w3.org/2000/svg" version="1.1" xmlns:xlink="http://www.w3.org/1999/xlink" xmlns:svgjs="http://svgjs.com/svgjs" width="16" height="16"><svg xmlns="http://www.w3.org/2000/svg" width="16" height="16" fill="currentColor" class="bi bi-check-all" viewBox="0 0 16 16">
  <path d="M8.97 4.97a.75.75 0 0 1 1.07 1.05l-3.99 4.99a.75.75 0 0 1-1.08.02L2.324 8.384a.75.75 0 1 1 1.06-1.06l2.094 2.093L8.95 4.992a.252.252 0 0 1 .02-.022zm-.92 5.14.92.92a.75.75 0 0 0 1.079-.02l3.992-4.99a.75.75 0 1 0-1.091-1.028L9.477 9.417l-.485-.486-.943 1.179z"></path>
</svg></svg></g></svg>